<svg width="8" height="7" viewBox="0 0 8 7" fill="none" xmlns="http://www.w3.org/2000/svg">
<g clip-path="url(#clip0_1_2995)">
<path fill-rule="evenodd" clip-rule="evenodd" d="M0.133109 6.89773C0.204943 6.96339 0.300226 7 0.39929 7C0.498355 7 0.593638 6.96339 0.665472 6.89773L3.77929 4.00533C3.84899 3.94158 3.90449 3.86484 3.94242 3.77979C3.98034 3.69474 3.9999 3.60316 3.9999 3.51061C3.9999 3.41806 3.98034 3.32647 3.94242 3.24142C3.90449 3.15638 3.84899 3.07964 3.77929 3.01588L0.642927 0.102133C0.497473 -0.0326169 0.261836 -0.0343674 0.1142 0.0986329C0.0784565 0.130318 0.0498618 0.168738 0.0301915 0.211506C0.010521 0.254274 0.000194897 0.300478 -0.000146284 0.347248C-0.000487227 0.394018 0.00916419 0.440356 0.0282091 0.483386C0.0472539 0.526415 0.0752858 0.565218 0.110564 0.597383L2.98075 3.26333C3.01563 3.29521 3.0434 3.33359 3.06238 3.37613C3.08136 3.41867 3.09115 3.46449 3.09115 3.51078C3.09115 3.55708 3.08136 3.60289 3.06238 3.64543C3.0434 3.68797 3.01562 3.72635 2.98075 3.75823L0.133472 6.40318C0.0986031 6.43503 0.0708352 6.47338 0.0518597 6.51589C0.0328844 6.5584 0.0230987 6.60419 0.0230987 6.65046C0.0230987 6.69673 0.0328844 6.74251 0.0518596 6.78502C0.0708351 6.82753 0.0982394 6.86588 0.133109 6.89773Z" fill="#717171"/>
</g>
<g clip-path="url(#clip1_1_2995)">
<path fill-rule="evenodd" clip-rule="evenodd" d="M4.13311 6.89773C4.20494 6.96339 4.30023 7 4.39929 7C4.49835 7 4.59364 6.96339 4.66547 6.89773L7.77929 4.00533C7.84899 3.94158 7.90449 3.86484 7.94242 3.77979C7.98034 3.69474 7.9999 3.60316 7.9999 3.51061C7.9999 3.41806 7.98034 3.32647 7.94242 3.24142C7.90449 3.15638 7.84899 3.07964 7.77929 3.01588L4.64293 0.102133C4.49747 -0.0326169 4.26184 -0.0343674 4.1142 0.0986329C4.07846 0.130318 4.04986 0.168738 4.03019 0.211506C4.01052 0.254274 4.00019 0.300478 3.99985 0.347248C3.99951 0.394018 4.00916 0.440356 4.02821 0.483386C4.04725 0.526415 4.07529 0.565218 4.11056 0.597383L6.98075 3.26333C7.01563 3.29521 7.0434 3.33359 7.06238 3.37613C7.08136 3.41867 7.09115 3.46449 7.09115 3.51078C7.09115 3.55708 7.08136 3.60289 7.06238 3.64543C7.0434 3.68797 7.01562 3.72635 6.98075 3.75823L4.13347 6.40318C4.0986 6.43503 4.07084 6.47338 4.05186 6.51589C4.03288 6.5584 4.0231 6.60419 4.0231 6.65046C4.0231 6.69673 4.03288 6.74251 4.05186 6.78502C4.07084 6.82753 4.09824 6.86588 4.13311 6.89773Z" fill="#717171"/>
</g>
<defs>
<clipPath id="clip0_1_2995">
<rect width="4" height="7" fill="white" transform="translate(4 7) rotate(-180)"/>
</clipPath>
<clipPath id="clip1_1_2995">
<rect width="4" height="7" fill="white" transform="translate(8 7) rotate(-180)"/>
</clipPath>
</defs>
</svg>
