<svg width="124" height="27" viewBox="0 0 124 27" fill="none" xmlns="http://www.w3.org/2000/svg">
<g clip-path="url(#clip0_1_265)">
<path fill-rule="evenodd" clip-rule="evenodd" d="M7.83347 0.461914H26.5157C26.9615 0.461914 27.3733 0.697187 27.5956 1.07888L33.0385 10.4239C33.3208 10.9085 33.2369 11.5202 32.8343 11.9132L17.8526 26.5369C17.3673 27.0106 16.5866 27.0106 16.1012 26.5369L1.13976 11.9329C0.727796 11.5308 0.650654 10.9013 0.953593 10.4137L6.77163 1.0489C6.99821 0.684184 7.4003 0.461914 7.83347 0.461914ZM24.1035 4.63413V7.25619H18.7817V9.07416C22.5194 9.26843 25.3236 10.0663 25.3445 11.0227L25.3443 13.0165C25.3235 13.9729 22.5194 14.7708 18.7817 14.9651V19.4265H15.2479V14.9651C11.5103 14.7708 8.70599 13.9729 8.68519 13.0165L8.68531 11.0227C8.70611 10.0663 11.5103 9.26843 15.2479 9.07416V7.25619H9.92611V4.63413H24.1035ZM17.0148 13.5953C21.0036 13.5953 24.3376 12.9206 25.1535 12.0196C24.4616 11.2555 21.9589 10.6542 18.7817 10.4891V12.3925C18.2122 12.4221 17.6211 12.4377 17.0148 12.4377C16.4086 12.4377 15.8174 12.4221 15.2479 12.3925V10.4891C12.0707 10.6542 9.56807 11.2555 8.87618 12.0196C9.6921 12.9206 13.0261 13.5953 17.0148 13.5953Z" fill="#009393"/>
<path d="M40.3306 5.53307L44.6492 5.05322V9.1919H48.398V12.7908H44.6192V18.369C44.6192 19.6886 45.179 20.3484 46.2987 20.3484C47.0184 20.3484 47.6182 20.2284 48.0981 19.9885L49.0878 23.5873C48.1081 23.9672 47.0684 24.1872 45.9688 24.2471C44.2293 24.3271 42.8498 23.9172 41.8301 23.0175C40.8304 22.0978 40.3306 20.5483 40.3306 18.369V12.7908H37.6914V9.1919H40.3306V5.53307Z" fill="#009393"/>
<path d="M64.562 17.919H53.6755C53.7954 18.6787 54.2053 19.3085 54.9051 19.8083C55.6049 20.2882 56.5346 20.5281 57.6942 20.5281C59.3537 20.5281 60.6332 20.1382 61.533 19.3585L63.9622 22.0576C62.4827 23.5172 60.3633 24.2469 57.6042 24.2469C54.9651 24.2469 52.9157 23.5372 51.4562 22.1176C50.0166 20.6981 49.2969 18.7787 49.2969 16.3594C49.2969 14.0802 50.0066 12.2408 51.4262 10.8412C52.8457 9.42169 54.7551 8.71191 57.1544 8.71191C59.7735 8.71191 61.7729 9.51166 63.1524 11.1111C64.552 12.7106 65.0219 14.9799 64.562 17.919ZM53.6755 14.77H60.6932C60.6532 14.0102 60.2934 13.4304 59.6136 13.0305C58.9338 12.6106 58.1141 12.4007 57.1544 12.4007C56.2946 12.4007 55.5549 12.6106 54.9351 13.0305C54.3153 13.4504 53.8954 14.0302 53.6755 14.77Z" fill="#009393"/>
<path d="M68.1625 5.53307L72.4812 5.05322V9.1919H76.23V12.7908H72.4512V18.369C72.4512 19.6886 73.011 20.3484 74.1306 20.3484C74.8504 20.3484 75.4502 20.2284 75.9301 19.9885L76.9198 23.5873C75.9401 23.9672 74.9004 24.1872 73.8008 24.2471C72.0613 24.3271 70.6817 23.9172 69.6621 23.0175C68.6624 22.0978 68.1625 20.5483 68.1625 18.369V12.7908H65.5234V9.1919H68.1625V5.53307Z" fill="#009393"/>
<path d="M78.5391 2.92383H82.8877V10.9313C83.9474 9.55172 85.4469 8.86194 87.3863 8.86194C91.325 8.86194 93.2944 11.2312 93.2944 15.9697V23.9171H88.9758V15.9997C88.9758 14.98 88.7159 14.1902 88.196 13.6304C87.6962 13.0706 87.0164 12.7907 86.1567 12.7907C85.217 12.7907 84.4272 13.1106 83.7874 13.7504C83.1676 14.3902 82.8577 15.2799 82.8577 16.4195V23.9171H78.5391V2.92383Z" fill="#009393"/>
<path d="M110.23 17.919H99.3434C99.4634 18.6787 99.8733 19.3085 100.573 19.8083C101.273 20.2882 102.203 20.5281 103.363 20.5281C105.022 20.5281 106.302 20.1382 107.201 19.3585L109.631 22.0576C108.151 23.5172 106.032 24.2469 103.273 24.2469C100.633 24.2469 98.5837 23.5372 97.1241 22.1176C95.6846 20.6981 94.9648 18.7787 94.9648 16.3594C94.9648 14.0802 95.6746 12.2408 97.0942 10.8412C98.5137 9.42169 100.423 8.71191 102.823 8.71191C105.442 8.71191 107.441 9.51166 108.821 11.1111C110.22 12.7106 110.69 14.9799 110.23 17.919ZM99.3434 14.77H106.362C106.322 14.0102 105.962 13.4304 105.282 13.0305C104.602 12.6106 103.782 12.4007 102.823 12.4007C101.963 12.4007 101.223 12.6106 100.603 13.0305C99.9832 13.4504 99.5634 14.0302 99.3434 14.77Z" fill="#009393"/>
<path d="M112.023 9.13185H116.042L116.372 10.7513C117.312 9.43176 118.631 8.77197 120.331 8.77197C121.73 8.77197 122.94 9.22182 123.96 10.1215L122.16 13.5404C121.46 13.0406 120.671 12.7907 119.791 12.7907C118.811 12.7907 117.992 13.1006 117.332 13.7204C116.672 14.3202 116.342 15.1499 116.342 16.2096V23.9171H112.023V9.13185Z" fill="#009393"/>
</g>
<defs>
<clipPath id="clip0_1_265">
<rect width="124" height="27" fill="white"/>
</clipPath>
</defs>
</svg>
